<?xml version="1.0" standalone="no"?>
<!DOCTYPE svg PUBLIC "-//W3C//DTD SVG 20010904//EN"
 "http://www.w3.org/TR/2001/REC-SVG-20010904/DTD/svg10.dtd">
<svg version="1.0" xmlns="http://www.w3.org/2000/svg"
 width="848.000000pt" height="848.000000pt" viewBox="0 0 848.000000 848.000000"
 preserveAspectRatio="xMidYMid meet">
<metadata>
Created by potrace 1.11, written by Peter Selinger 2001-2013
</metadata>
<g transform="translate(0.000000,848.000000) scale(0.100000,-0.100000)"
fill="#000000" stroke="none">
<path d="M1006 8303 c-1 -1 -31 -4 -66 -8 -376 -33 -652 -201 -794 -482 -34
-66 -87 -205 -85 -221 1 -4 0 -9 -1 -12 -5 -15 -19 -101 -26 -165 -12 -100 -5
-339 11 -415 3 -14 7 -43 10 -65 18 -183 143 -597 255 -849 12 -27 30 -70 40
-95 37 -94 218 -454 294 -586 13 -22 33 -56 44 -75 38 -68 66 -115 72 -120 3
-3 12 -18 20 -35 15 -31 20 -38 89 -142 22 -35 41 -67 41 -73 0 -5 5 -10 10
-10 6 0 10 -7 10 -15 0 -8 5 -15 10 -15 6 0 10 -4 10 -10 0 -5 24 -43 53 -85
28 -41 57 -83 62 -92 6 -9 14 -22 18 -27 5 -6 28 -39 51 -73 l43 -62 34 41
c19 23 43 51 54 64 24 26 37 43 89 109 21 28 46 57 55 65 9 8 29 33 46 55 34
46 51 67 83 101 12 14 22 29 22 33 0 5 -25 52 -55 106 -51 89 -205 396 -205
408 0 2 -10 26 -22 53 -12 27 -23 51 -23 54 0 3 -15 41 -32 85 -51 130 -114
338 -130 430 -2 11 -8 43 -13 70 -16 81 -22 142 -24 271 -11 528 282 810 831
798 156 -4 186 -7 373 -44 82 -15 310 -82 425 -124 236 -86 521 -219 770 -359
77 -44 160 -90 185 -104 25 -14 52 -32 61 -39 8 -8 19 -14 23 -14 4 0 54 -31
112 -70 57 -38 108 -70 112 -70 4 0 23 -14 42 -30 19 -16 40 -30 46 -30 6 0
17 -6 23 -14 6 -7 44 -35 84 -62 39 -27 77 -52 82 -56 6 -5 66 -50 135 -101
69 -51 134 -100 144 -109 21 -19 36 -15 36 8 0 40 79 170 146 240 47 49 147
124 165 124 25 0 5 28 -46 64 -14 11 -35 27 -45 36 -10 9 -31 25 -45 36 -15
10 -32 24 -39 29 -6 6 -47 39 -91 73 -44 34 -84 65 -90 70 -5 4 -50 38 -100
75 -49 37 -95 71 -101 75 -5 5 -39 29 -75 53 -35 24 -66 46 -69 49 -3 4 -41
31 -85 61 -44 29 -81 57 -83 61 -2 5 -10 8 -18 8 -8 0 -14 5 -14 10 0 6 -4 10
-9 10 -5 0 -37 19 -71 43 -34 23 -69 47 -78 52 -9 6 -56 36 -106 68 -49 31
-90 57 -92 57 -2 0 -35 20 -74 45 -39 25 -72 45 -74 45 -3 0 -40 21 -83 46
-200 119 -473 262 -708 369 -78 36 -360 154 -380 159 -5 2 -23 8 -38 14 -15 7
-40 15 -55 18 -15 4 -32 10 -37 15 -6 4 -22 10 -35 13 -14 3 -59 17 -100 31
-41 14 -82 25 -92 25 -9 0 -20 5 -23 10 -4 6 -12 9 -18 8 -7 -1 -28 3 -47 9
-37 12 -193 49 -245 58 -138 24 -203 33 -298 41 -70 6 -277 11 -281 7z"/>
<path d="M7287 8293 c-1 -1 -36 -4 -77 -7 -40 -3 -87 -8 -104 -11 -74 -12 -94
-15 -136 -21 -25 -3 -48 -8 -51 -10 -3 -2 -41 -10 -85 -19 -67 -14 -185 -47
-394 -110 -42 -12 -196 -67 -230 -82 -8 -3 -19 -7 -25 -9 -11 -2 -234 -96
-335 -140 -95 -41 -441 -214 -471 -235 -14 -10 -29 -16 -33 -12 -3 3 -6 1 -6
-5 0 -7 -4 -12 -10 -12 -5 0 -32 -13 -60 -30 -27 -16 -50 -27 -50 -24 0 3 -7
-2 -16 -10 -8 -9 -21 -16 -29 -16 -7 0 -15 -3 -17 -8 -1 -4 -41 -29 -88 -56
-47 -27 -172 -103 -278 -170 l-194 -120 30 -26 c16 -14 70 -54 118 -90 49 -36
102 -77 119 -93 16 -15 38 -30 48 -33 9 -3 17 -9 17 -14 0 -5 15 -17 33 -29
17 -11 41 -28 52 -38 65 -57 58 -55 99 -34 20 11 44 25 53 33 9 7 18 12 20 10
2 -2 44 18 94 43 50 24 143 68 207 96 65 28 131 57 147 64 30 13 143 54 225
82 25 8 52 17 60 20 8 3 20 7 25 9 6 1 45 12 87 24 84 23 81 22 183 44 157 33
227 40 395 41 153 0 227 -6 273 -24 15 -6 27 -8 27 -6 0 3 16 -1 35 -9 20 -9
39 -16 43 -17 42 -9 127 -53 177 -92 115 -89 179 -185 228 -342 26 -81 29
-112 32 -275 2 -120 -1 -181 -16 -265 -26 -143 -80 -337 -136 -483 -25 -64
-47 -127 -50 -139 -3 -13 -9 -23 -14 -23 -5 0 -8 -3 -7 -7 2 -10 -10 -43 -23
-63 -5 -8 -14 -28 -21 -44 -25 -64 -202 -403 -218 -416 -3 -3 -19 -31 -35 -62
-17 -32 -33 -58 -37 -58 -5 0 -8 -5 -8 -11 0 -6 -13 -31 -30 -56 -16 -24 -30
-48 -30 -54 0 -5 -4 -9 -8 -9 -5 0 -14 -11 -20 -25 -7 -14 -17 -31 -22 -38 -6
-7 -25 -34 -42 -62 -18 -27 -35 -52 -38 -55 -3 -3 -20 -27 -39 -55 -19 -27
-85 -117 -146 -200 -124 -166 -195 -255 -309 -390 -14 -16 -26 -32 -26 -35 0
-3 15 -11 33 -19 77 -33 135 -65 174 -97 67 -55 153 -151 153 -171 0 -7 7 -16
16 -21 9 -5 15 -13 14 -18 -5 -27 23 -3 90 77 41 49 86 102 99 117 13 15 40
47 60 72 20 25 41 50 47 55 8 8 82 100 144 179 8 10 27 33 43 51 15 18 27 35
27 38 0 4 9 17 21 29 41 44 287 377 308 416 6 11 17 27 23 34 7 8 18 21 23 30
9 15 118 179 145 218 58 85 215 341 263 430 16 30 33 60 37 65 34 46 290 559
290 580 0 5 26 65 55 130 8 17 25 62 39 100 14 39 34 94 45 123 11 29 19 54
19 55 -1 1 8 31 19 67 21 65 44 146 49 165 1 6 9 40 18 78 9 37 18 82 21 100
3 17 10 57 15 87 33 179 32 520 -1 606 -4 13 -7 24 -4 24 4 0 -21 92 -34 125
-25 61 -94 194 -113 219 -53 66 -115 129 -162 164 -28 20 -54 41 -58 47 -5 6
-8 6 -8 0 0 -6 -4 -5 -8 1 -23 37 -209 105 -375 139 -61 13 -381 28 -390 18z"/>
<path d="M3403 6303 c-26 -20 -50 -39 -53 -43 -3 -4 -27 -26 -55 -49 -49 -41
-129 -112 -210 -185 -46 -41 -45 -41 -103 -21 -190 66 -462 21 -629 -106 -174
-131 -263 -296 -269 -500 -2 -75 2 -110 20 -195 7 -33 48 -127 63 -145 7 -8
13 -19 13 -24 0 -20 155 -184 174 -185 5 0 17 -6 25 -14 28 -25 154 -83 210
-96 184 -43 343 -26 509 56 50 25 92 50 92 55 0 5 5 9 11 9 10 0 105 93 139
136 50 62 103 190 117 279 13 78 6 189 -17 273 l-22 83 33 30 c19 17 51 44 71
61 20 16 48 40 61 51 38 35 136 118 165 141 15 11 32 25 38 31 6 5 28 24 49
40 62 48 70 58 54 64 -14 6 -66 40 -84 54 -16 13 -347 237 -350 237 -2 0 -25
-16 -52 -37z"/>
<path d="M5398 6295 c-2 -2 -25 -5 -53 -8 -95 -10 -208 -45 -257 -78 -14 -11
-30 -19 -35 -19 -4 0 -20 -11 -35 -25 -15 -14 -30 -25 -34 -25 -3 0 -28 -23
-55 -51 -62 -62 -122 -154 -144 -219 -1 -3 -5 -12 -8 -20 -35 -83 -45 -290
-17 -375 45 -139 127 -263 227 -343 55 -45 192 -119 228 -125 11 -1 25 -5 30
-9 32 -19 218 -29 295 -15 25 4 57 10 72 12 15 3 38 9 52 15 23 9 32 3 105
-73 122 -127 194 -206 252 -277 88 -106 86 -105 101 -89 7 8 33 41 58 74 47
63 46 63 83 110 13 17 32 45 42 63 11 17 23 32 27 32 4 0 8 4 8 9 0 6 12 29
28 53 52 82 52 78 13 118 -20 21 -50 55 -68 76 -18 22 -70 78 -116 127 -46 48
-82 87 -80 87 2 0 -8 10 -22 23 -26 22 -26 22 -10 67 39 108 51 243 30 335 -3
17 -7 37 -7 45 -2 30 -55 147 -91 202 -39 58 -106 128 -167 173 -41 31 -152
85 -174 85 -8 0 -17 4 -20 9 -10 15 -245 48 -258 36z"/>
<path d="M1858 4758 c-40 -46 -82 -94 -93 -107 -11 -14 -36 -43 -56 -65 -55
-63 -226 -273 -309 -381 -41 -53 -81 -103 -87 -110 -7 -8 -13 -17 -13 -22 0
-5 -9 -15 -20 -23 -11 -8 -20 -18 -20 -23 0 -5 -15 -27 -33 -50 -62 -77 -284
-396 -364 -523 -167 -262 -198 -314 -234 -382 -10 -18 -22 -38 -27 -45 -31
-40 -228 -431 -301 -600 -74 -168 -174 -437 -164 -437 3 0 1 -6 -5 -13 -6 -7
-14 -26 -17 -42 -8 -38 -8 -39 -28 -105 -9 -30 -19 -71 -22 -90 -3 -19 -12
-60 -20 -90 -8 -30 -16 -73 -19 -95 -3 -22 -9 -62 -13 -90 -10 -62 -11 -402
-1 -471 4 -28 12 -63 17 -78 6 -14 8 -26 6 -26 -9 0 56 -171 87 -227 128 -236
361 -395 658 -448 95 -17 144 -20 295 -19 153 0 242 5 330 20 17 3 41 6 55 8
71 10 115 19 225 46 66 17 129 33 140 36 11 3 25 6 30 8 77 21 109 31 160 48
33 11 69 24 80 29 11 5 29 11 40 12 11 2 33 9 48 15 16 7 31 12 34 12 3 0 19
7 36 14 18 8 75 32 127 52 167 65 380 162 585 268 299 155 310 160 313 169 2
4 8 7 13 7 6 0 35 16 65 35 30 19 56 35 59 35 13 0 465 281 465 290 0 4 -47
39 -89 65 -9 6 -18 13 -21 16 -3 3 -32 25 -65 50 -33 24 -62 47 -65 50 -3 3
-45 36 -95 74 -49 38 -92 71 -95 74 -3 3 -14 14 -26 23 -19 17 -22 17 -55 0
-19 -10 -41 -22 -49 -27 -8 -5 -17 -10 -20 -11 -3 0 -71 -33 -152 -72 -158
-78 -316 -144 -468 -199 -104 -37 -100 -36 -185 -58 -33 -9 -67 -19 -75 -22
-17 -7 -24 -9 -60 -17 -14 -3 -36 -7 -50 -10 -78 -18 -193 -38 -245 -44 -77
-9 -326 -9 -385 0 -182 27 -320 90 -425 194 -63 63 -78 82 -96 122 -8 18 -17
32 -21 32 -5 0 -8 5 -8 10 0 6 -8 29 -19 53 -22 50 -37 104 -48 172 -10 60
-10 324 -1 380 4 22 9 57 13 79 15 104 92 373 134 469 11 26 20 48 20 50 -1 8
58 155 72 177 5 8 12 22 15 30 21 48 66 147 74 160 5 8 24 44 42 80 18 36 36
67 40 68 5 2 8 8 8 13 0 6 29 60 65 120 36 61 65 113 65 116 0 2 6 11 13 18 6
8 39 57 72 110 54 86 280 413 294 425 3 3 33 41 66 85 56 76 135 174 163 203
7 8 25 30 40 50 15 21 37 48 50 62 12 14 22 27 22 31 0 8 -47 29 -64 29 -19 0
-154 91 -196 131 -44 43 -92 104 -114 147 -9 17 -18 32 -21 32 -2 0 -37 -37
-77 -82z"/>
<path d="M2347 3880 c-10 -16 -23 -35 -30 -42 -21 -22 -121 -159 -171 -233
-25 -38 -50 -75 -55 -81 -26 -32 -22 -54 16 -95 21 -23 51 -56 67 -73 37 -41
222 -239 231 -248 4 -4 -2 -35 -14 -70 -18 -57 -28 -115 -35 -203 -1 -26 8
-85 30 -185 19 -90 125 -243 214 -311 25 -19 47 -37 50 -40 3 -4 37 -22 75
-42 157 -79 321 -98 490 -57 378 89 604 453 504 810 -11 37 -60 152 -70 160
-3 3 -15 21 -27 40 -32 53 -140 150 -212 193 -62 36 -159 72 -225 83 -61 11
-201 12 -250 3 -27 -6 -60 -12 -72 -15 -12 -2 -35 -9 -50 -15 -25 -9 -31 -5
-117 84 -117 122 -144 151 -245 270 -45 53 -84 97 -85 97 -1 0 -10 -13 -19
-30z"/>
<path d="M7288 3877 c-7 -8 -26 -32 -43 -53 -16 -21 -55 -68 -85 -104 -30 -36
-60 -72 -67 -80 -7 -8 -49 -59 -93 -112 l-82 -97 29 -58 c15 -32 31 -60 34
-63 4 -3 20 -32 37 -65 16 -33 43 -87 60 -120 44 -86 122 -253 122 -260 0 -3
11 -31 25 -61 14 -30 25 -58 25 -63 0 -5 6 -24 14 -42 8 -19 15 -38 16 -44 1
-5 6 -16 12 -22 6 -7 8 -13 5 -13 -3 0 4 -24 14 -52 11 -29 22 -60 24 -68 2
-8 15 -60 30 -115 14 -55 28 -120 31 -145 3 -24 7 -47 10 -51 14 -24 22 -285
10 -374 -9 -70 -36 -175 -52 -207 -8 -15 -15 -31 -15 -35 -2 -19 -45 -92 -77
-133 -122 -153 -286 -240 -507 -267 -98 -13 -408 -4 -434 11 -3 2 -28 7 -54
10 -27 4 -101 20 -165 37 -65 17 -124 32 -132 34 -21 4 -181 59 -260 88 -199
74 -447 189 -690 322 -47 25 -93 49 -102 52 -10 3 -18 9 -18 14 0 5 -4 9 -9 9
-19 0 -535 322 -561 350 -3 3 -34 25 -70 50 -36 24 -125 89 -199 143 -101 75
-136 96 -142 85 -5 -7 -9 -17 -9 -21 0 -16 -33 -82 -69 -137 -46 -71 -116
-141 -190 -189 -33 -21 -56 -42 -53 -47 4 -6 59 -50 122 -99 63 -49 124 -98
135 -108 11 -10 35 -27 53 -38 17 -12 32 -24 32 -29 0 -5 9 -12 20 -15 11 -3
26 -12 32 -18 23 -22 138 -107 145 -107 3 0 13 -7 22 -16 9 -8 57 -44 106 -79
50 -35 95 -68 100 -73 18 -14 369 -248 385 -255 8 -4 53 -32 100 -62 47 -30
129 -80 183 -111 53 -31 100 -60 103 -65 3 -5 10 -7 15 -4 5 4 9 1 9 -4 0 -6
4 -11 9 -11 5 0 51 -24 102 -53 52 -29 121 -66 154 -83 33 -16 62 -32 63 -36
2 -5 12 -8 22 -8 10 0 20 -3 22 -7 2 -5 37 -24 78 -43 41 -19 77 -38 78 -42 2
-5 10 -8 18 -8 7 0 28 -8 46 -18 18 -10 62 -31 98 -46 36 -16 88 -39 115 -51
43 -19 108 -45 355 -139 44 -17 263 -87 287 -91 10 -2 18 -4 18 -5 0 -1 8 -3
17 -5 9 -2 48 -11 85 -20 37 -10 79 -19 93 -21 14 -3 39 -9 55 -14 84 -24 213
-31 510 -27 171 2 319 6 330 9 47 10 112 30 140 42 17 8 41 17 55 21 14 4 37
16 52 26 14 11 29 19 32 19 15 0 116 74 161 117 57 55 115 126 115 141 0 6 4
12 9 14 23 8 113 222 126 297 3 19 8 37 10 40 3 6 11 58 21 141 6 51 6 300 0
335 -2 17 -7 55 -11 85 -3 30 -10 78 -15 105 -5 28 -12 61 -14 75 -2 14 -9 45
-15 70 -5 25 -12 56 -15 70 -3 14 -19 70 -36 125 -16 55 -32 109 -34 120 -2
11 -11 36 -20 56 -8 20 -12 39 -9 43 4 3 1 6 -5 6 -7 0 -11 3 -10 8 0 4 -2 16
-6 27 -30 79 -92 238 -108 275 -11 25 -27 61 -36 80 -34 77 -164 340 -202 410
-23 41 -56 102 -73 135 -17 33 -34 62 -37 65 -6 6 -153 250 -159 265 -2 5 -7
12 -10 15 -4 3 -22 30 -41 60 -19 30 -38 57 -42 58 -5 2 -8 8 -8 14 0 10 -143
223 -206 306 -27 36 -34 40 -46 29z"/>
<path d="M5628 3754 c-2 -1 -19 -4 -38 -7 -19 -2 -53 -9 -75 -15 -22 -6 -43
-12 -48 -12 -18 0 -157 -76 -197 -108 -85 -67 -170 -164 -170 -192 0 -6 -4
-10 -8 -10 -7 0 -18 -22 -45 -90 -47 -122 -53 -295 -12 -409 8 -24 15 -49 15
-56 0 -6 -57 -58 -126 -116 -70 -57 -132 -108 -138 -114 -6 -5 -34 -28 -61
-50 -121 -96 -161 -132 -155 -138 10 -9 336 -224 380 -251 25 -15 52 -32 62
-38 13 -10 26 -4 75 36 32 26 67 54 78 63 11 9 47 39 80 68 33 28 73 62 89 76
16 13 44 39 63 57 l34 33 87 -22 c386 -97 772 127 858 498 23 99 15 259 -17
338 -32 81 -52 120 -79 160 -33 48 -147 165 -161 165 -4 0 -14 6 -21 14 -38
38 -196 100 -286 112 -49 7 -180 13 -184 8z"/>
</g>
</svg>
